<svg xmlns="http://www.w3.org/2000/svg" width="34" height="34" viewBox="0 0 34 34">
  <path id="Path_1252" data-name="Path 1252" d="M439.7-95.75H416.3a5.3,5.3,0,0,0-5.3,5.3v23.41a5.3,5.3,0,0,0,5.3,5.3H439.7a5.3,5.3,0,0,0,5.3-5.3v-23.41A5.3,5.3,0,0,0,439.7-95.75Zm-.659,25.683a5.649,5.649,0,0,1-4.691,3.57h-.031a.381.381,0,0,1-.1-.014c-.057-.016-.136-.033-.228-.054a5.512,5.512,0,0,1-.985-.293,31.816,31.816,0,0,1-9.958-6.612,29.915,29.915,0,0,1-6.564-9.993,4.594,4.594,0,0,1-.065-3.708,4.827,4.827,0,0,1,3-2.471,2.453,2.453,0,0,1,1.668,0c1.259.463,4.248,4.538,4.321,5.893a2.452,2.452,0,0,1-1.346,2.15c-.868.59-1.028,1.314-.535,2.423a10.149,10.149,0,0,0,5.3,5.164,2.08,2.08,0,0,0,.843.212,1.22,1.22,0,0,0,1.047-.636,2.757,2.757,0,0,1,2.3-1.454,3.75,3.75,0,0,1,2.128.808l.376.262c.6.421,1.229.857,1.817,1.33.111.089.229.18.343.267C438.559-72.555,439.635-71.732,439.046-70.067Zm-2.34-10.348c.012.355.037,1.093-.771,1.216a1.543,1.543,0,0,1-.231.019h0c-.869,0-.918-.808-.941-1.2a2.82,2.82,0,0,0-.025-.281c-.539-3.248-1.642-4.4-4.919-5.131-.081-.018-.178-.031-.28-.046a1.435,1.435,0,0,1-1.033-.444.968.968,0,0,1-.145-.76.934.934,0,0,1,1-.838,3.408,3.408,0,0,1,.556.061c.084.014.163.027.235.035a7.41,7.41,0,0,1,6.56,7.061.362.362,0,0,1,0,.048A1.75,1.75,0,0,0,436.705-80.415Zm-3.069-.478c.027.811-.269,1.259-.879,1.331a.919.919,0,0,1-.114.007h0a1.008,1.008,0,0,1-.96-1,2.133,2.133,0,0,0-1.979-2.131,1.2,1.2,0,0,1-.9-.477.92.92,0,0,1-.038-.8,1.133,1.133,0,0,1,1.191-.687,3.539,3.539,0,0,1,2.495,1.18A3.8,3.8,0,0,1,433.637-80.892Zm6.03,2.048a.929.929,0,0,1-.7.266h-.029c-.946-.018-.961-.9-.967-1.323a3.179,3.179,0,0,0-.015-.324c-.686-5.422-3.16-7.971-8.54-8.8-.077-.012-.168-.019-.265-.026-.4-.029-1.237-.09-1.188-.954a.974.974,0,0,1,1.072-1c.1,0,.2.007.286.013s.14.01.2.01a.46.46,0,0,0,.066,0,.366.366,0,0,1,.067,0,10.965,10.965,0,0,1,10.272,10.761c0,.074,0,.16.007.25A1.482,1.482,0,0,1,439.667-78.844Z" transform="translate(-411 95.75)" fill="#be1e2d"/>
</svg>
