<svg id="facebook_icon" data-name="facebook icon" xmlns="http://www.w3.org/2000/svg" width="23.859" height="23.859" viewBox="0 0 23.859 23.859">
  <path id="iconmonstr-facebook-6" d="M22.542,0H1.317A1.317,1.317,0,0,0,0,1.317V22.543a1.317,1.317,0,0,0,1.317,1.316H12.745V14.62H9.635v-3.6h3.11V8.364c0-3.082,1.882-4.76,4.632-4.76a25.506,25.506,0,0,1,2.779.142V6.967H18.249c-1.5,0-1.784.711-1.784,1.753v2.3H20.03l-.464,3.6h-3.1v9.239h6.08a1.317,1.317,0,0,0,1.315-1.317V1.317A1.317,1.317,0,0,0,22.542,0Z" fill="#be1e2d"/>
</svg>
