<svg id="line_icon" data-name="line icon" xmlns="http://www.w3.org/2000/svg" width="23.859" height="23.859" viewBox="0 0 23.859 23.859">
  <path id="iconmonstr-line-3" d="M18.888,23.859H4.971A4.971,4.971,0,0,1,0,18.888V4.971A4.971,4.971,0,0,1,4.971,0H18.888a4.971,4.971,0,0,1,4.971,4.971V18.888A4.971,4.971,0,0,1,18.888,23.859Zm.994-12.435c0-3.559-3.568-6.454-7.953-6.454S3.977,7.866,3.977,11.425c0,3.19,2.829,5.862,6.652,6.367.258.056.611.171.7.393a1.626,1.626,0,0,1,.026.719l-.113.681c-.035.2-.16.786.689.428A25.692,25.692,0,0,0,18.179,15.4h0A5.737,5.737,0,0,0,19.883,11.425ZM8.969,13.479H6.74l-.107-.043h0l0,0-.044-.106V9.86A.155.155,0,0,1,6.74,9.7H7.3a.155.155,0,0,1,.154.155v2.752H8.969a.154.154,0,0,1,.154.155v.558a.154.154,0,0,1-.154.155Zm8.265,0H15.005l-.107-.043,0,0-.044-.106V9.86l.044-.106,0,0,.107-.044h2.229a.154.154,0,0,1,.154.155v.558a.154.154,0,0,1-.154.155H15.718v.586h1.516a.154.154,0,0,1,.154.155v.558a.154.154,0,0,1-.154.155H15.718v.586h1.516a.154.154,0,0,1,.154.155v.558a.154.154,0,0,1-.154.155Zm-6.92,0H9.755a.154.154,0,0,1-.155-.154V9.86A.155.155,0,0,1,9.755,9.7h.559a.154.154,0,0,1,.154.155v3.466A.154.154,0,0,1,10.314,13.479Zm1.41,0h-.558a.154.154,0,0,1-.155-.154V9.86a.155.155,0,0,1,.155-.155h.571l.015,0,.009,0,.015,0,0,0,.014.006.013.008.008,0,.012.01,0,0,.01.011.013.015,1.588,2.145V9.86A.155.155,0,0,1,13.6,9.7h.558a.155.155,0,0,1,.155.155v3.466a.155.155,0,0,1-.155.154H13.6l-.04,0h0l-.016,0-.007,0-.012-.006-.01-.006h0l-.04-.039-1.59-2.147v2.059A.155.155,0,0,1,11.724,13.479Z" fill="#be1e2d"/>
</svg>
