
<svg id="twitter_icon" data-name="twitter icon" xmlns="http://www.w3.org/2000/svg" width="23.859" height="23.973" viewBox="0 0 23.859 23.973">
  <path id="iconmonstr-twitter-3" d="M18.888,0H4.971A4.983,4.983,0,0,0,0,4.994V18.978a4.983,4.983,0,0,0,4.971,4.994H18.888a4.982,4.982,0,0,0,4.971-4.994V4.994A4.982,4.982,0,0,0,18.888,0ZM18.75,9.227A9.274,9.274,0,0,1,4.473,17.507,6.543,6.543,0,0,0,9.3,16.15a3.268,3.268,0,0,1-3.048-2.277,3.266,3.266,0,0,0,1.473-.056A3.279,3.279,0,0,1,5.112,10.56a3.235,3.235,0,0,0,1.477.411,3.294,3.294,0,0,1-1.01-4.378,9.251,9.251,0,0,0,6.726,3.426,3.265,3.265,0,0,1,5.561-2.99,6.526,6.526,0,0,0,2.074-.8,3.29,3.29,0,0,1-1.435,1.814,6.515,6.515,0,0,0,1.874-.516,6.638,6.638,0,0,1-1.629,1.7Z" fill="#be1e2d"/>
</svg>
